<svg id="Layer_1" data-name="Layer 1" xmlns="http://www.w3.org/2000/svg" viewBox="0 0 150 150"><defs><style>.cls-1{fill:#1b9cd8}.cls-2{fill:#1658a3}.cls-3{fill:#771f5a}.cls-4{fill:#d30f51}.cls-5{fill:#293278}.cls-6{fill:#629c31}.cls-7{fill:#09632e}.cls-8{fill:#774114}.cls-9{fill:#9b9a9c}</style></defs><title>elife-logo-symbol</title><path class="cls-1" d="M107.89 122.94a95.38 95.38 0 0 0-4.17-17q-2-5.75-4.23-11.44c-.68.7-1.34 1.42-2 2.15A48.74 48.74 0 0 0 91 106a86.86 86.86 0 0 1 4.18 17.33 129.71 129.71 0 0 1-.18 33.56 66.56 66.56 0 0 0 9.2-1.33 64.25 64.25 0 0 0 3.87-15.23 65.36 65.36 0 0 0-.18-17.39z" transform="translate(-15 -15)"/><path class="cls-2" d="M121.16 144.55c.86-2.29 1.63-4.6 2.27-6.94a57.58 57.58 0 0 0 2.17-14.23 55.8 55.8 0 0 0-1.65-14.17c-1.11-4.68-2.77-9.28-4.09-14.17a54.59 54.59 0 0 1-2.26-14c-2.79 1.61-5.52 3.3-8.11 5.14a71.69 71.69 0 0 0-5.92 4.53c1.76 4.52 3.47 9.1 4.82 13.82a94.92 94.92 0 0 1 3.54 18 68.9 68.9 0 0 1-.73 18.32 67.85 67.85 0 0 1-4.2 14.05 66.77 66.77 0 0 0 11.69-4.26c.33-.92.75-1.8 1.11-2.69.48-1.13.93-2.26 1.36-3.4z" transform="translate(-15 -15)"/><path class="cls-3" d="M152.84 81.13c-.76 2.7-1.7 5.29-2.57 7.84s-1.7 5-2.39 7.55a56.88 56.88 0 0 0-2.09 15.28 55.05 55.05 0 0 0 .55 7.89q.29 2 .69 3.95c.08.41.18.82.27 1.23A67.3 67.3 0 0 0 154.62 72a49 49 0 0 1-1.78 9.13z" transform="translate(-15 -15)"/><path class="cls-1" d="M63.23 43.7a61.35 61.35 0 0 0 3.26 16.51 65.23 65.23 0 0 0 6.23 13c.47-.77.94-1.55 1.43-2.3 1.76-2.66 3.64-5.23 5.62-7.74s4-4.94 6.24-7.25l.23-.23c0-.23-.08-.45-.11-.67A45.87 45.87 0 0 1 87 36.44 42.32 42.32 0 0 1 93.52 23a66.65 66.65 0 0 0-30 5.32c-.18 2.28-.37 4.55-.43 6.83-.09 2.85-.04 5.71.14 8.55z" transform="translate(-15 -15)"/><path class="cls-2" d="M90.33 37.23a41 41 0 0 0-.24 14.62C91 51 92 50.12 92.92 49.28a86.06 86.06 0 0 1 30.37-17.52 67 67 0 0 0-23.08-8.05c-1.13-.17-2.28-.32-3.42-.44h-.49a47 47 0 0 0-3.3 5.81 37.59 37.59 0 0 0-2.67 8.15z" transform="translate(-15 -15)"/><path class="cls-4" d="M72.14 140.73a60.8 60.8 0 0 0-6.9-14.39c-1.55-2.5-3.22-4.95-4.94-7.4A100.77 100.77 0 0 0 58.72 134q-.13 4.6.19 9.21.16 2.3.43 4.59c.08.65.16 1.31.23 2a66.9 66.9 0 0 0 14.85 5.43 55.14 55.14 0 0 0-.5-6.73 52.51 52.51 0 0 0-1.78-7.77zM126 33.42a74.72 74.72 0 0 0-15.78 7.76A94.69 94.69 0 0 0 96 52.63c-1.64 1.58-3.21 3.23-4.74 4.92-.52.57-1.05 1.14-1.56 1.72-.76.87-1.5 1.75-2.25 2.63-1.22 1.45-2.43 2.92-3.57 4.43-1.85 2.42-3.59 4.93-5.26 7.49-1 1.44-1.87 2.9-2.76 4.38 2.48 3.83 5.07 7.67 7.47 11.72a104.41 104.41 0 0 1 5.19 9.91 51.7 51.7 0 0 1 5-6.65c1.22-1.37 2.5-2.66 3.84-3.9s2.77-2.48 4.23-3.63q2.48-1.94 5.09-3.66A113.72 113.72 0 0 1 118 75.72a39.53 39.53 0 0 1 3.33-11.34 67.45 67.45 0 0 1 8-13c1.52-2 3.1-4 4.73-5.87 1-1.12 2-2.25 3-3.33A66.45 66.45 0 0 0 126 33.42z" transform="translate(-15 -15)"/><path class="cls-5" d="M149.07 79.79c4.68-10.07 2.07-17.39 1.32-18.94-.35-.71-.69-1.43-1.06-2.13a67 67 0 0 0-10.68-14.86c-.83 1.11-1.66 2.21-2.46 3.34-1.42 2-2.8 4-4.08 6.1a75.07 75.07 0 0 0-6.41 12.9 56 56 0 0 0-2 6.73v.1a34.92 34.92 0 0 0-.7 5q-.06.89-.07 1.77a48.51 48.51 0 0 0 1.88 13.92c1.25 4.68 2.68 9.5 3.65 14.52a56.15 56.15 0 0 1 1 15.34 61.06 61.06 0 0 1-3.13 14.93 79.48 79.48 0 0 1-2.75 7c-.51 1.15-1 2.29-1.59 3.41a67.2 67.2 0 0 0 23.64-21.47 9.66 9.66 0 0 1-.52-1.17c-.24-.64-.49-1.3-.71-2q-.69-2-1.27-4a56.58 56.58 0 0 1-1.75-8.28 40.65 40.65 0 0 1 1.43-17c1.56-5.45 4.03-10.42 6.26-15.21z" transform="translate(-15 -15)"/><path class="cls-6" d="M92.78 149.65c0-2.88-.09-5.75-.26-8.61a134.16 134.16 0 0 0-1.87-17 100.18 100.18 0 0 0-2.72-11.22c-.53-1.71-1.1-3.4-1.74-5.06-.27-.72-.58-1.43-.87-2.14a94.14 94.14 0 0 0-6.59-13c-1.84-3.1-3.83-6.16-5.8-9.29-1.07-1.67-2.13-3.33-3.16-5.13l-.19-.31a72.4 72.4 0 0 1-7.21-16.39A66.55 66.55 0 0 1 60 43.81c0-3 .12-5.9.38-8.83.17-1.84.38-3.68.64-5.51a67.28 67.28 0 0 0-8.61 4.94 136 136 0 0 0-5 14.93 79.24 79.24 0 0 0-2.6 16 57.33 57.33 0 0 0 1.31 15.85 56 56 0 0 0 2.35 7.57A63.44 63.44 0 0 0 51.74 96a119.15 119.15 0 0 0 6.75 11l1.85 2.75 1.47 2.15c2.63 3.84 5.27 7.76 7.64 11.91a62 62 0 0 1 6.48 15.85 43.06 43.06 0 0 1 1.17 8.52 44.34 44.34 0 0 1-.31 7.55c1 .19 1.95.37 2.93.53s1.83.25 2.75.35l.67.09c.55.06 1.1.09 1.66.13a68 68 0 0 0 7.89.17c.06-2.44.09-4.9.09-7.35z" transform="translate(-15 -15)"/><path class="cls-7" d="M56.95 148.32s-.01-.02 0 0zM56.95 148.32s.05.04 0 0z" transform="translate(-15 -15)"/><path class="cls-8" d="M42.78 130.72a53 53 0 0 0-2.78-9.78c-2.43-6.34-5.8-12.3-9.13-18.46a92.85 92.85 0 0 1-4.58-9.6 72.47 72.47 0 0 1-3-9.63 66.82 66.82 0 0 0 20.28 55.09c0-.85-.07-1.69-.13-2.55q-.22-2.56-.66-5.07z" transform="translate(-15 -15)"/><path class="cls-9" d="M97.31 19A71.36 71.36 0 1 1 19 82.69 71.44 71.44 0 0 1 97.31 19m.37-3.62a75 75 0 1 0 66.92 82.31A75.08 75.08 0 0 0 97.69 15.4z" transform="translate(-15 -15)"/><path class="cls-7" d="M56.95 148.32c-.27-1.56-.52-3.27-.71-4.84q-.56-4.71-.67-9.47a105.46 105.46 0 0 1 1.33-19c0-.25.09-.51.13-.76l-1-1.48a117.53 117.53 0 0 1-8.88-14.39 68.91 68.91 0 0 1-3.44-7.89 56.62 56.62 0 0 1-2.24-8.36A58.8 58.8 0 0 1 40.79 65a95 95 0 0 1 7.86-27.87C33.27 48.2 21.85 72.37 25.75 81.7a77.41 77.41 0 0 0 4.66 9.16c1.74 3 3.5 6 5.19 9 3.37 6.14 6.62 12.64 8.53 19.67A59.52 59.52 0 0 1 46 130.3c.15 1.8.21 3.61.18 5.41 0 .9-.05 1.8-.11 2.71l-.07 1.34q0 .36-.11.72a67.09 67.09 0 0 0 11 7.84s.05-.03.06 0z" transform="translate(-15 -15)"/></svg>